HIERARCHY
ROOT Hips
{
	OFFSET 0.000000 0.000000 0.000000
	CHANNELS 6 Xposition Yposition Zposition Xrotation Yrotation Zrotation
	JOINT Thigh.L
	{
		OFFSET 0.054436 0.030512 -0.091944
		CHANNELS 3 Xrotation Yrotation Zrotation
		JOINT Shin.L
		{
			OFFSET 0.053185 0.015674 -0.411411
			CHANNELS 3 Xrotation Yrotation Zrotation
			JOINT Foot.L
			{
				OFFSET -0.041491 0.033015 -0.432589
				CHANNELS 3 Xrotation Yrotation Zrotation
				JOINT Toe.L
				{
					OFFSET 0.044741 -0.119403 -0.063832
					CHANNELS 3 Xrotation Yrotation Zrotation
					End Site
					{
						OFFSET 0.000000 0.050000 0.000000
					}
				}
			}
		}
	}
	JOINT Thigh.R
	{
		OFFSET -0.059726 0.027782 -0.102329
		CHANNELS 3 Xrotation Yrotation Zrotation
		JOINT Shin.R
		{
			OFFSET -0.042566 0.021159 -0.395112
			CHANNELS 3 Xrotation Yrotation Zrotation
			JOINT Foot.R
			{
				OFFSET 0.015539 0.021493 -0.441508
				CHANNELS 3 Xrotation Yrotation Zrotation
				JOINT Toe.R
				{
					OFFSET -0.037083 -0.120181 -0.063777
					CHANNELS 3 Xrotation Yrotation Zrotation
					End Site
					{
						OFFSET 0.000000 0.050000 0.000000
					}
				}
			}
		}
	}
	JOINT Spine
	{
		OFFSET -0.002073 0.019911 0.109453
		CHANNELS 3 Xrotation Yrotation Zrotation
		JOINT Spine.2
		{
			OFFSET 0.006781 0.003123 0.134261
			CHANNELS 3 Xrotation Yrotation Zrotation
			JOINT Chest
			{
				OFFSET -0.010427 -0.023269 0.049266
				CHANNELS 3 Xrotation Yrotation Zrotation
				JOINT Neck
				{
					OFFSET -0.009473 0.029402 0.163541
					CHANNELS 3 Xrotation Yrotation Zrotation
					JOINT Head
					{
						OFFSET 0.022306 -0.022071 0.164686
						CHANNELS 3 Xrotation Yrotation Zrotation
						End Site
						{
							OFFSET 0.000000 0.050000 0.000000
						}
					}
				}
				JOINT Clavicle.L
				{
					OFFSET 0.043305 0.008528 0.083583
					CHANNELS 3 Xrotation Yrotation Zrotation
					JOINT UpperArm.L
					{
						OFFSET 0.106399 0.014868 0.061799
						CHANNELS 3 Xrotation Yrotation Zrotation
						JOINT ForeArm.L
						{
							OFFSET 0.264443 0.035281 -0.075551
							CHANNELS 3 Xrotation Yrotation Zrotation
							JOINT Hand.L
							{
								OFFSET 0.263801 0.006290 0.021320
								CHANNELS 3 Xrotation Yrotation Zrotation
								JOINT Thumb1.L
								{
									OFFSET 0.154576 0.002851 0.009664
									CHANNELS 3 Xrotation Yrotation Zrotation
									JOINT Thumb2.L
									{
										OFFSET 0.029894 0.000713 0.002416
										CHANNELS 3 Xrotation Yrotation Zrotation
										End Site
										{
											OFFSET 0.024912 0.000594 0.002013
										}
									}
								}
								JOINT Index1.L
								{
									OFFSET 0.137576 0.002851 0.009664
									CHANNELS 3 Xrotation Yrotation Zrotation
									JOINT Index2.L
									{
										OFFSET 0.029894 0.000713 0.002416
										CHANNELS 3 Xrotation Yrotation Zrotation
										JOINT Index3.L
										{
											OFFSET 0.021922 0.000523 0.001772
											CHANNELS 3 Xrotation Yrotation Zrotation
											End Site
											{
												OFFSET 0.017936 0.000428 0.001450
											}
										}
									}
								}
								JOINT Middle1.L
								{
									OFFSET 0.119576 0.002851 0.009664
									CHANNELS 3 Xrotation Yrotation Zrotation
									JOINT Middle2.L
									{
										OFFSET 0.030891 0.000737 0.002496
										CHANNELS 3 Xrotation Yrotation Zrotation
										JOINT Middle3.L
										{
											OFFSET 0.021922 0.000523 0.001772
											CHANNELS 3 Xrotation Yrotation Zrotation
											End Site
											{
												OFFSET 0.017936 0.000428 0.001450
											}
										}
									}
								}
								JOINT Ring1.L
								{
									OFFSET 0.101576 0.002851 0.009664
									CHANNELS 3 Xrotation Yrotation Zrotation
									JOINT Ring2.L
									{
										OFFSET 0.028898 0.000689 0.002335
										CHANNELS 3 Xrotation Yrotation Zrotation
										JOINT Ring3.L
										{
											OFFSET 0.019929 0.000475 0.001611
											CHANNELS 3 Xrotation Yrotation Zrotation
											End Site
											{
												OFFSET 0.016940 0.000404 0.001369
											}
										}
									}
								}
								JOINT Pinky1.L
								{
									OFFSET 0.085576 0.002851 0.009664
									CHANNELS 3 Xrotation Yrotation Zrotation
									JOINT Pinky2.L
									{
										OFFSET 0.023915 0.000570 0.001933
										CHANNELS 3 Xrotation Yrotation Zrotation
										JOINT Pinky3.L
										{
											OFFSET 0.016940 0.000404 0.001369
											CHANNELS 3 Xrotation Yrotation Zrotation
											End Site
											{
												OFFSET 0.013951 0.000333 0.001127
											}
										}
									}
								}
							}
						}
					}
				}
				JOINT Clavicle.R
				{
					OFFSET -0.041423 0.014623 0.083095
					CHANNELS 3 Xrotation Yrotation Zrotation
					JOINT UpperArm.R
					{
						OFFSET -0.091831 0.009797 0.057319
						CHANNELS 3 Xrotation Yrotation Zrotation
						JOINT ForeArm.R
						{
							OFFSET -0.280522 0.022633 -0.042740
							CHANNELS 3 Xrotation Yrotation Zrotation
							JOINT Hand.R
							{
								OFFSET -0.260514 0.018872 -0.003366
								CHANNELS 3 Xrotation Yrotation Zrotation
								JOINT Thumb1.R
								{
									OFFSET -0.154676 0.008670 -0.001546
									CHANNELS 3 Xrotation Yrotation Zrotation
									JOINT Thumb2.R
									{
										OFFSET -0.029919 0.002167 -0.000387
										CHANNELS 3 Xrotation Yrotation Zrotation
										End Site
										{
											OFFSET -0.024933 0.001806 -0.000322
										}
									}
								}
								JOINT Index1.R
								{
									OFFSET -0.137676 0.008670 -0.001546
									CHANNELS 3 Xrotation Yrotation Zrotation
									JOINT Index2.R
									{
										OFFSET -0.029919 0.002167 -0.000387
										CHANNELS 3 Xrotation Yrotation Zrotation
										JOINT Index3.R
										{
											OFFSET -0.021941 0.001589 -0.000283
											CHANNELS 3 Xrotation Yrotation Zrotation
											End Site
											{
												OFFSET -0.017951 0.001300 -0.000232
											}
										}
									}
								}
								JOINT Middle1.R
								{
									OFFSET -0.119676 0.008670 -0.001546
									CHANNELS 3 Xrotation Yrotation Zrotation
									JOINT Middle2.R
									{
										OFFSET -0.030916 0.002240 -0.000399
										CHANNELS 3 Xrotation Yrotation Zrotation
										JOINT Middle3.R
										{
											OFFSET -0.021941 0.001589 -0.000283
											CHANNELS 3 Xrotation Yrotation Zrotation
											End Site
											{
												OFFSET -0.017951 0.001300 -0.000232
											}
										}
									}
								}
								JOINT Ring1.R
								{
									OFFSET -0.101676 0.008670 -0.001546
									CHANNELS 3 Xrotation Yrotation Zrotation
									JOINT Ring2.R
									{
										OFFSET -0.028922 0.002095 -0.000374
										CHANNELS 3 Xrotation Yrotation Zrotation
										JOINT Ring3.R
										{
											OFFSET -0.019946 0.001445 -0.000258
											CHANNELS 3 Xrotation Yrotation Zrotation
											End Site
											{
												OFFSET -0.016954 0.001228 -0.000219
											}
										}
									}
								}
								JOINT Pinky1.R
								{
									OFFSET -0.085676 0.008670 -0.001546
									CHANNELS 3 Xrotation Yrotation Zrotation
									JOINT Pinky2.R
									{
										OFFSET -0.023935 0.001734 -0.000309
										CHANNELS 3 Xrotation Yrotation Zrotation
										JOINT Pinky3.R
										{
											OFFSET -0.016954 0.001228 -0.000219
											CHANNELS 3 Xrotation Yrotation Zrotation
											End Site
											{
												OFFSET -0.013962 0.001011 -0.000180
											}
										}
									}
								}
							}
						}
					}
				}
			}
		}
	}
}
MOTION
Frames: 4
Frame Time: 0.04166667
-0.002666 -0.034150 1.040437 -4.570308 0.949116 2.490006 4.037964 0.798473 -0.710020 3.458504 0.718447 -10.705587 -7.065549 0.327064 7.621348 2.901192 -3.757226 0.546921 1.342709 -1.447783 0.425280 5.543888 -0.236539 3.833132 -5.988341 -2.366539 -4.852820 0.865901 -2.752471 -1.502142 4.122200 0.138278 2.502879 4.979654 -4.353224 -3.080644 -5.201477 3.327634 0.168493 10.272082 -0.211306 3.486155 15.743535 0.781325 3.000539 5.524771 21.143425 3.347842 18.065930 48.443801 -22.993263 18.916654 -2.691734 -20.594033 5.936196 0.821815 -6.649164 0.000000 0.000000 0.000000 0.000000 0.000000 0.000000 0.000000 0.000000 0.000000 0.000000 0.000000 0.000000 0.000000 0.000000 0.000000 0.000000 0.000000 0.000000 0.000000 0.000000 0.000000 0.000000 0.000000 0.000000 0.000000 0.000000 0.000000 0.000000 0.000000 0.000000 0.000000 0.000000 0.000000 0.000000 0.000000 0.000000 0.000000 0.000000 0.000000 0.000000 0.000000 0.000000 1.922847 -14.882651 -0.710288 31.320982 -52.560260 28.498729 10.561804 3.896730 26.407835 -2.151401 -4.650836 2.827227 0.000000 0.000000 0.000000 0.000000 0.000000 0.000000 0.000000 0.000000 0.000000 0.000000 0.000000 0.000000 0.000000 0.000000 0.000000 0.000000 0.000000 0.000000 0.000000 0.000000 0.000000 0.000000 0.000000 0.000000 0.000000 0.000000 0.000000 0.000000 0.000000 0.000000 0.000000 0.000000 0.000000 0.000000 0.000000 0.000000 0.000000 0.000000 0.000000 0.000000 0.000000 0.000000
-0.003478 -0.033559 1.040379 -4.518921 0.988105 2.450088 3.995592 0.824428 -0.768709 3.462082 0.691472 -10.736095 -7.075725 0.254986 7.715018 2.911469 -3.766334 0.533095 1.340809 -1.458447 0.462264 5.492821 -0.206141 3.906414 -5.995679 -2.390687 -4.875719 0.864257 -2.711986 -1.484421 4.073738 0.161408 2.531009 5.017345 -4.364635 -3.072906 -5.283056 3.351682 0.172619 10.305934 -0.230049 3.436106 15.674442 0.777698 2.955501 5.547260 21.164329 3.382707 18.039885 48.452163 -22.941996 18.948099 -2.679054 -20.587140 5.882457 0.852375 -6.552006 0.000000 0.000000 0.000000 0.000000 0.000000 0.000000 0.000000 0.000000 0.000000 0.000000 0.000000 0.000000 0.000000 0.000000 0.000000 0.000000 0.000000 0.000000 0.000000 0.000000 0.000000 0.000000 0.000000 0.000000 0.000000 0.000000 0.000000 0.000000 0.000000 0.000000 0.000000 0.000000 0.000000 0.000000 0.000000 0.000000 0.000000 0.000000 0.000000 0.000000 0.000000 0.000000 1.981840 -14.845469 -0.726726 31.387686 -52.558242 28.591035 10.655338 3.924038 26.309546 -2.150054 -4.635873 2.756240 0.000000 0.000000 0.000000 0.000000 0.000000 0.000000 0.000000 0.000000 0.000000 0.000000 0.000000 0.000000 0.000000 0.000000 0.000000 0.000000 0.000000 0.000000 0.000000 0.000000 0.000000 0.000000 0.000000 0.000000 0.000000 0.000000 0.000000 0.000000 0.000000 0.000000 0.000000 0.000000 0.000000 0.000000 0.000000 0.000000 0.000000 0.000000 0.000000 0.000000 0.000000 0.000000
-0.003088 -0.032851 1.040318 -4.462495 0.969129 2.375824 3.993481 0.852991 -0.790166 3.392432 0.667760 -10.668317 -7.056992 0.242348 7.720972 2.906362 -3.786073 0.544940 1.351282 -1.465242 0.435144 5.424108 -0.166568 3.901208 -6.038332 -2.395640 -4.827082 0.862654 -2.745826 -1.505873 4.066466 0.145396 2.552229 4.926467 -4.304929 -3.043938 -5.163599 3.350377 0.163452 10.252764 -0.273025 3.449572 15.640566 0.804062 2.937939 5.472877 21.144221 3.437446 17.999653 48.472664 -22.869738 18.910921 -2.676068 -20.532033 5.762311 0.964325 -6.520873 0.000000 0.000000 0.000000 0.000000 0.000000 0.000000 0.000000 0.000000 0.000000 0.000000 0.000000 0.000000 0.000000 0.000000 0.000000 0.000000 0.000000 0.000000 0.000000 0.000000 0.000000 0.000000 0.000000 0.000000 0.000000 0.000000 0.000000 0.000000 0.000000 0.000000 0.000000 0.000000 0.000000 0.000000 0.000000 0.000000 0.000000 0.000000 0.000000 0.000000 0.000000 0.000000 1.924984 -14.815248 -0.729250 31.542974 -52.654190 28.708949 10.655751 4.017916 26.297784 -2.066059 -4.646875 2.674641 0.000000 0.000000 0.000000 0.000000 0.000000 0.000000 0.000000 0.000000 0.000000 0.000000 0.000000 0.000000 0.000000 0.000000 0.000000 0.000000 0.000000 0.000000 0.000000 0.000000 0.000000 0.000000 0.000000 0.000000 0.000000 0.000000 0.000000 0.000000 0.000000 0.000000 0.000000 0.000000 0.000000 0.000000 0.000000 0.000000 0.000000 0.000000 0.000000 0.000000 0.000000 0.000000
-0.002991 -0.032576 1.040273 -4.433405 0.967993 2.356251 4.001024 0.857843 -0.786138 3.313077 0.660080 -10.612404 -7.044827 0.244026 7.714119 2.911719 -3.784742 0.545111 1.353807 -1.472869 0.447091 5.408770 -0.153493 3.895665 -6.074800 -2.394736 -4.822738 0.862186 -2.737110 -1.505485 4.069134 0.160682 2.558477 4.932174 -4.300121 -3.028012 -5.175648 3.350405 0.164838 10.243097 -0.291884 3.435829 15.615480 0.808908 2.887476 5.474341 21.141134 3.447141 17.973661 48.473123 -22.810317 18.887976 -2.693325 -20.575356 5.739373 1.005877 -6.490845 0.000000 0.000000 0.000000 0.000000 0.000000 0.000000 0.000000 0.000000 0.000000 0.000000 0.000000 0.000000 0.000000 0.000000 0.000000 0.000000 0.000000 0.000000 0.000000 0.000000 0.000000 0.000000 0.000000 0.000000 0.000000 0.000000 0.000000 0.000000 0.000000 0.000000 0.000000 0.000000 0.000000 0.000000 0.000000 0.000000 0.000000 0.000000 0.000000 0.000000 0.000000 0.000000 1.940564 -14.803476 -0.709453 31.584830 -52.677019 28.752995 10.689694 4.054585 26.305058 -2.006437 -4.659600 2.630689 0.000000 0.000000 0.000000 0.000000 0.000000 0.000000 0.000000 0.000000 0.000000 0.000000 0.000000 0.000000 0.000000 0.000000 0.000000 0.000000 0.000000 0.000000 0.000000 0.000000 0.000000 0.000000 0.000000 0.000000 0.000000 0.000000 0.000000 0.000000 0.000000 0.000000 0.000000 0.000000 0.000000 0.000000 0.000000 0.000000 0.000000 0.000000 0.000000 0.000000 0.000000 0.000000
